<svg xmlns="http://www.w3.org/2000/svg" viewBox="0 0 24 24">
<circle cx="12" cy="12" r="11" fill="#8A5FB0"></circle>
<path d="M6 8c-2-1-3 1-2.5 3.5C4 13.5 6 14 7.5 12.5" fill="#EDE6D6" stroke="#2B2A26" stroke-width="1"></path><path d="M18 8c2-1 3 1 2.5 3.5C20 13.5 18 14 16.5 12.5" fill="#EDE6D6" stroke="#2B2A26" stroke-width="1"></path>
<ellipse cx="12" cy="13.5" rx="6.5" ry="6" fill="#EDE6D6" stroke="#2B2A26" stroke-width="1"></ellipse>
<circle cx="9.3" cy="12.5" r="1" fill="#2B2A26"></circle>
<circle cx="14.7" cy="12.5" r="1" fill="#2B2A26"></circle>
<ellipse cx="12" cy="15.3" rx="1.6" ry="1.2" fill="#2B2A26"></ellipse>
<path d="M12 16.5v1" stroke="#2B2A26" stroke-width="1" stroke-linecap="round"></path>
<ellipse cx="16" cy="10" rx="2.4" ry="3" fill="#2B2A26" opacity="0.55"></ellipse>
<path d="M6.2 17.5c1.8 1.6 3.9 2.4 5.8 2.4s4-.8 5.8-2.4" stroke="#2B2A26" stroke-width="1.3" fill="none"></path><rect x="10.8" y="18.6" width="2.4" height="2.2" rx="0.4" fill="#C68A2E" stroke="#2B2A26" stroke-width="0.6"></rect><path d="M7.3 4.2 9 7.6l3-3.6 3 3.6 1.7-3.4 1 5.6H6.3Z" fill="#C68A2E" stroke="#2B2A26" stroke-width="1"></path><circle cx="9" cy="4.2" r="0.9" fill="#C68A2E" stroke="#2B2A26" stroke-width="0.6"></circle><circle cx="12" cy="4" r="0.9" fill="#C68A2E" stroke="#2B2A26" stroke-width="0.6"></circle><circle cx="15" cy="4.2" r="0.9" fill="#C68A2E" stroke="#2B2A26" stroke-width="0.6"></circle></svg>