<svg xmlns="http://www.w3.org/2000/svg" viewBox="0 0 24 24" fill="none" stroke="currentColor" stroke-width="1.75" stroke-linecap="round" stroke-linejoin="round"><path d="M6.5 9c-1.4 0-2.5-1.1-2.5-2.5S5.1 4 6.5 4c1 0 1.8.6 2.2 1.4.8-.3 1.6-.4 3.3-.4s2.5.1 3.3.4C15.7 4.6 16.5 4 17.5 4 18.9 4 20 5.1 20 6.5S18.9 9 17.5 9c-.5 0-.9-.1-1.3-.4.4.9.6 1.9.6 3.4s-.2 2.5-.6 3.4c.4-.2.8-.4 1.3-.4 1.4 0 2.5 1.1 2.5 2.5S18.9 20 17.5 20c-1 0-1.8-.6-2.2-1.4-.8.3-1.6.4-3.3.4s-2.5-.1-3.3-.4C8.3 19.4 7.5 20 6.5 20 5.1 20 4 18.9 4 17.5S5.1 15 6.5 15c.5 0 .9.1 1.3.4-.4-.9-.6-1.9-.6-3.4s.2-2.5.6-3.4C7.4 8.9 7 9 6.5 9Z"></path></svg>