<svg xmlns="http://www.w3.org/2000/svg" viewBox="0 0 24 24" fill="none" stroke="currentColor" stroke-width="1.75" stroke-linejoin="round"><g transform="rotate(45 12 12)"><path d="M6 7.5C6 6.1 4.9 5 3.5 5S1 6.1 1 7.5C1 8.6 1.7 9.5 2.7 9.8c-.5 1-.7 2.1-.7 2.7s.2 1.7.7 2.7C1.7 15.5 1 16.4 1 17.5 1 18.9 2.1 20 3.5 20S6 18.9 6 17.5c0-.4-.1-.8-.3-1.1C6.9 16.8 8.4 17 10 17h4c1.6 0 3.1-.2 4.3-.6-.2.3-.3.7-.3 1.1 0 1.4 1.1 2.5 2.5 2.5s2.5-1.1 2.5-2.5c0-1.1-.7-2-1.7-2.3.5-1 .7-2.1.7-2.7s-.2-1.7-.7-2.7c1-.3 1.7-1.2 1.7-2.3C23 6.1 21.9 5 20.5 5S18 6.1 18 7.5c0 .4.1.8.3 1.1C17.1 8.2 15.6 8 14 8h-4c-1.6 0-3.1.2-4.3.6.2-.3.3-.7.3-1.1Z"></path></g></svg>