<svg viewBox="0 0 900 640" xmlns="http://www.w3.org/2000/svg">
  <defs>
    
  </defs>

  <rect width="900" height="640" fill="#F7F4EC"></rect>

  
  <g transform="translate(70,50)">
    <circle cx="110" cy="110" r="104" fill="#EDE6D6" stroke="#2B2A26" stroke-width="6"></circle>
    
    <path d="M 30 150 C 70 175, 110 175, 130 140 S 190 90, 185 65" fill="none" stroke="#4C6B4F" stroke-width="5" stroke-linecap="round" stroke-dasharray="2 14"></path>
    
    <g transform="translate(178,50)">
      <line x1="0" y1="0" x2="0" y2="22" stroke="#2B2A26" stroke-width="3" stroke-linecap="round"></line>
      <path d="M 0 0 L 16 5 L 0 11 Z" fill="#C68A2E"></path>
    </g>
    
    <g transform="translate(88,92) rotate(-6)">
      <ellipse cx="0" cy="30" rx="27" ry="21" fill="#B5502C" stroke="#2B2A26" stroke-width="2"></ellipse>
      <ellipse cx="-27" cy="-2" rx="12" ry="15.5" fill="#B5502C" stroke="#2B2A26" stroke-width="2" transform="rotate(-22 -27 -2)"></ellipse>
      <ellipse cx="-9" cy="-19" rx="12" ry="16" fill="#B5502C" stroke="#2B2A26" stroke-width="2" transform="rotate(-8 -9 -19)"></ellipse>
      <ellipse cx="12" cy="-19" rx="12" ry="16" fill="#B5502C" stroke="#2B2A26" stroke-width="2" transform="rotate(8 12 -19)"></ellipse>
      <ellipse cx="30" cy="-2" rx="12" ry="15.5" fill="#B5502C" stroke="#2B2A26" stroke-width="2" transform="rotate(22 30 -2)"></ellipse>
    </g>
  </g>
  <text x="70" y="285" class="cap">PRIMARY MARK — app icon, stamps, favicon base</text>

  
  <g transform="translate(70,340)">
    <g transform="scale(0.6)">
      <circle cx="110" cy="110" r="104" fill="#EDE6D6" stroke="#2B2A26" stroke-width="6"></circle>
      <path d="M 30 150 C 70 175, 110 175, 130 140 S 190 90, 185 65" fill="none" stroke="#4C6B4F" stroke-width="5" stroke-linecap="round" stroke-dasharray="2 14"></path>
      <g transform="translate(178,50)">
        <line x1="0" y1="0" x2="0" y2="22" stroke="#2B2A26" stroke-width="3" stroke-linecap="round"></line>
        <path d="M 0 0 L 16 5 L 0 11 Z" fill="#C68A2E"></path>
      </g>
      <g transform="translate(88,92) rotate(-6)">
        <ellipse cx="0" cy="30" rx="27" ry="21" fill="#B5502C" stroke="#2B2A26" stroke-width="2"></ellipse>
        <ellipse cx="-27" cy="-2" rx="12" ry="15.5" fill="#B5502C" stroke="#2B2A26" stroke-width="2" transform="rotate(-22 -27 -2)"></ellipse>
        <ellipse cx="-9" cy="-19" rx="12" ry="16" fill="#B5502C" stroke="#2B2A26" stroke-width="2" transform="rotate(-8 -9 -19)"></ellipse>
        <ellipse cx="12" cy="-19" rx="12" ry="16" fill="#B5502C" stroke="#2B2A26" stroke-width="2" transform="rotate(8 12 -19)"></ellipse>
        <ellipse cx="30" cy="-2" rx="12" ry="15.5" fill="#B5502C" stroke="#2B2A26" stroke-width="2" transform="rotate(22 30 -2)"></ellipse>
      </g>
    </g>
    <text x="150" y="72" class="kicker">COLUMBUS</text>
    <text x="150" y="112" class="word" font-size="42">DOG TREAT TRAIL</text>
  </g>
  <text x="70" y="470" class="cap">HORIZONTAL LOCKUP — site header, email signature, letterhead</text>

  
  <g transform="translate(70,510)">
    <rect width="100" height="100" rx="20" fill="#B5502C"></rect>
    <g transform="translate(50,58) scale(0.42)">
      <ellipse cx="0" cy="30" rx="27" ry="21" fill="#F7F4EC"></ellipse>
      <ellipse cx="-27" cy="-2" rx="12" ry="15.5" fill="#F7F4EC" transform="rotate(-22 -27 -2)"></ellipse>
      <ellipse cx="-9" cy="-19" rx="12" ry="16" fill="#F7F4EC" transform="rotate(-8 -9 -19)"></ellipse>
      <ellipse cx="12" cy="-19" rx="12" ry="16" fill="#F7F4EC" transform="rotate(8 12 -19)"></ellipse>
      <ellipse cx="30" cy="-2" rx="12" ry="15.5" fill="#F7F4EC" transform="rotate(22 30 -2)"></ellipse>
    </g>
  </g>
  <text x="70" y="632" class="cap">FAVICON — 100x100, scales down to 16px</text>

  
  <g transform="translate(230,510)">
    <circle cx="50" cy="50" r="48" fill="none" stroke="#2B2A26" stroke-width="4"></circle>
    <path d="M 15 68 C 32 79, 50 79, 59 63 S 86 41, 84 29" fill="none" stroke="#2B2A26" stroke-width="3" stroke-linecap="round" stroke-dasharray="1 8"></path>
    <g transform="translate(40,42) scale(0.44)">
      <ellipse cx="0" cy="30" rx="27" ry="21" fill="#2B2A26"></ellipse>
      <ellipse cx="-27" cy="-2" rx="12" ry="15.5" fill="#2B2A26" transform="rotate(-22 -27 -2)"></ellipse>
      <ellipse cx="-9" cy="-19" rx="12" ry="16" fill="#2B2A26" transform="rotate(-8 -9 -19)"></ellipse>
      <ellipse cx="12" cy="-19" rx="12" ry="16" fill="#2B2A26" transform="rotate(8 12 -19)"></ellipse>
      <ellipse cx="30" cy="-2" rx="12" ry="15.5" fill="#2B2A26" transform="rotate(22 30 -2)"></ellipse>
    </g>
  </g>
  <text x="230" y="632" class="cap">SINGLE-COLOR — stamps, watermarks, print</text>

</svg>